if (_typeface_js && _typeface_js.loadFace) _typeface_js.loadFace({"glyphs":{"S":{"x_min":81,"x_max":498,"ha":580,"o":"m 498 78 q 476 21 498 43 q 419 0 454 0 l 159 0 q 103 21 125 0 q 81 78 81 43 l 81 344 l 175 344 l 175 83 l 404 83 l 404 336 l 111 689 q 81 770 81 726 l 81 982 q 103 1039 81 1017 q 159 1061 125 1061 l 419 1061 q 476 1039 454 1061 q 498 982 498 1017 l 498 739 l 404 739 l 404 978 l 175 978 l 175 753 l 468 400 q 498 320 498 364 l 498 78 "},"¦":{"x_min":88,"x_max":182,"ha":269,"o":"m 182 551 l 88 551 l 88 1111 l 182 1111 l 182 551 m 182 -277 l 88 -277 l 88 283 l 182 283 l 182 -277 "},"/":{"x_min":31,"x_max":570,"ha":600,"o":"m 570 1054 l 121 0 l 31 0 l 31 5 l 479 1061 l 570 1061 l 570 1054 "},"y":{"x_min":36,"x_max":446,"ha":483,"o":"m 446 660 l 287 5 l 221 -250 l 132 -250 l 199 5 l 36 660 l 129 660 l 241 140 l 356 660 l 446 660 "},"≈":{"x_min":115,"x_max":586,"ha":701,"o":"m 586 545 q 530 487 586 487 q 459 500 496 487 l 204 598 l 204 491 l 115 491 l 115 632 q 170 691 115 691 q 241 676 205 691 l 497 580 l 497 687 l 586 687 l 586 545 m 586 277 q 530 219 586 219 q 459 232 496 219 l 204 330 l 204 223 l 115 223 l 115 364 q 170 423 115 423 q 241 408 205 423 l 497 312 l 497 419 l 586 419 l 586 277 "},"Ž":{"x_min":33,"x_max":440,"ha":478,"o":"m 440 0 l 33 0 q 33 49 33 49 l 331 978 l 62 978 l 62 1061 l 440 1061 q 440 1012 440 1012 l 142 83 l 440 83 l 440 0 m 415 1275 l 277 1121 l 224 1121 l 87 1275 l 87 1280 l 145 1280 l 252 1200 l 359 1280 l 415 1280 l 415 1275 "},"Á":{"x_min":43,"x_max":513,"ha":556,"o":"m 513 0 l 419 0 l 381 236 l 171 236 l 134 0 l 43 0 l 43 2 l 232 1064 l 325 1064 l 513 0 m 369 319 l 276 894 l 183 319 l 369 319 m 434 1277 l 268 1121 l 205 1121 l 205 1125 l 306 1280 l 434 1280 l 434 1277 "},"g":{"x_min":71,"x_max":450,"ha":525,"o":"m 450 -171 q 371 -250 449 -250 l 159 -250 q 81 -171 82 -250 q 82 -128 81 -156 q 83 -87 83 -99 l 172 -87 l 172 -173 l 360 -173 l 360 0 l 212 0 q 111 40 151 0 q 71 142 71 80 l 71 527 q 106 624 71 585 q 200 664 141 664 q 360 642 215 664 l 360 659 l 450 659 l 450 -171 m 360 79 l 360 578 q 235 585 253 585 q 161 508 161 585 l 161 155 q 235 79 161 79 l 360 79 "},"²":{"x_min":43,"x_max":388,"ha":431,"o":"m 388 521 l 43 521 l 43 574 l 288 853 l 288 984 l 135 984 l 135 862 l 54 862 l 54 972 q 77 1034 54 1008 q 137 1061 101 1061 l 281 1061 q 344 1035 320 1061 q 369 972 369 1010 l 369 888 q 336 796 369 831 l 160 600 l 388 600 l 388 521 "},"–":{"x_min":65,"x_max":525,"ha":590,"o":"m 525 363 l 65 363 l 65 447 l 525 447 l 525 363 "},"ë":{"x_min":74,"x_max":443,"ha":518,"o":"m 443 76 q 364 0 442 0 l 152 0 q 74 78 74 0 l 74 581 q 152 660 74 660 l 364 660 q 443 581 442 660 l 443 345 l 412 314 l 162 314 l 162 75 l 356 75 l 356 196 l 443 196 l 443 76 m 356 386 l 356 585 l 162 585 l 162 386 l 356 386 m 396 718 l 296 718 l 296 820 l 396 820 l 396 718 m 221 718 l 121 718 l 121 820 l 221 820 l 221 718 "},"ƒ":{"x_min":-85,"x_max":415,"ha":424,"o":"m 415 1061 l 405 982 l 277 982 l 232 660 l 346 660 l 333 581 l 219 581 l 114 -173 q 27 -250 103 -250 l -85 -250 l -75 -171 l 25 -171 l 130 581 l 54 581 l 66 660 l 142 660 l 187 984 q 275 1061 197 1061 l 415 1061 "},"Î":{"x_min":-21,"x_max":298,"ha":276,"o":"m 184 0 l 90 0 l 90 1061 l 184 1061 l 184 0 m 298 1122 l 239 1122 l 137 1200 l 34 1122 l -21 1122 l -21 1127 l 112 1281 l 165 1281 l 298 1127 l 298 1122 "},"e":{"x_min":74,"x_max":443,"ha":518,"o":"m 443 76 q 364 0 442 0 l 152 0 q 74 78 74 0 l 74 581 q 152 660 74 660 l 364 660 q 443 581 442 660 l 443 345 l 412 314 l 162 314 l 162 75 l 356 75 l 356 196 l 443 196 l 443 76 m 356 386 l 356 585 l 162 585 l 162 386 l 356 386 "},"Ã":{"x_min":43,"x_max":513,"ha":556,"o":"m 513 0 l 419 0 l 381 236 l 171 236 l 134 0 l 43 0 l 43 2 l 232 1064 l 325 1064 l 513 0 m 369 319 l 276 894 l 183 319 l 369 319 m 427 1169 q 376 1119 427 1119 q 287 1143 347 1119 q 204 1180 245 1161 l 204 1120 l 132 1120 l 132 1203 q 182 1253 132 1253 q 271 1228 211 1253 q 354 1192 312 1210 l 354 1252 l 427 1252 l 427 1169 "},"J":{"x_min":61,"x_max":458,"ha":543,"o":"m 458 78 q 436 21 458 43 q 379 0 414 0 l 139 0 q 82 21 104 0 q 61 78 61 43 l 61 345 l 155 345 l 155 83 l 364 83 l 364 1061 l 458 1061 l 458 78 "},"»":{"x_min":71,"x_max":569,"ha":621,"o":"m 569 362 l 401 106 l 303 106 l 303 111 l 475 376 l 303 647 l 401 647 l 569 390 l 569 362 m 337 362 l 167 106 l 71 106 l 71 111 l 242 376 l 71 647 l 167 647 l 337 390 l 337 362 "},"∆":{"x_min":31,"x_max":526,"ha":555,"o":"m 526 0 l 31 0 l 31 83 l 232 1064 l 325 1064 q 431 546 332 1024 q 526 80 526 81 l 526 0 m 432 90 l 277 894 l 123 90 l 432 90 "},"‐":{"x_min":65,"x_max":345,"ha":410,"o":"m 345 363 l 65 363 l 65 447 l 345 447 l 345 363 "},"©":{"x_min":85,"x_max":700,"ha":785,"o":"m 700 78 q 621 0 700 0 l 163 0 q 85 78 85 0 l 85 982 q 163 1061 85 1060 l 621 1061 q 700 982 700 1060 l 700 78 m 648 47 l 648 1014 l 137 1014 l 137 47 l 648 47 m 522 282 q 473 235 522 235 l 312 235 q 262 282 262 235 l 262 783 q 312 832 262 832 l 473 832 q 522 783 522 832 l 522 640 l 453 640 l 453 768 l 331 768 l 331 297 l 453 297 l 453 437 l 522 437 l 522 282 "},"˘":{"x_min":147,"x_max":409,"ha":555,"o":"m 409 780 q 346 718 409 718 l 209 718 q 147 780 147 718 l 147 868 l 218 868 l 218 783 l 338 783 l 338 868 l 409 868 l 409 780 "},"≥":{"x_min":65,"x_max":410,"ha":473,"o":"m 410 439 l 65 205 l 65 299 l 317 464 l 65 631 l 65 725 l 69 725 l 410 488 l 410 439 m 409 98 l 65 98 l 65 179 l 409 179 l 409 98 "},"ò":{"x_min":74,"x_max":453,"ha":526,"o":"m 453 78 q 374 0 452 0 l 152 0 q 74 78 74 0 l 74 581 q 152 660 74 660 l 374 660 q 453 581 452 660 l 453 78 m 363 79 l 363 581 l 164 581 l 164 79 l 363 79 m 341 718 l 278 718 l 112 874 l 112 877 l 239 877 l 341 722 l 341 718 "},"^":{"x_min":65,"x_max":490,"ha":555,"o":"m 490 686 l 413 686 l 276 948 l 138 686 l 65 686 l 65 691 l 242 1061 l 313 1061 l 490 686 "},"«":{"x_min":53,"x_max":552,"ha":621,"o":"m 552 106 l 455 106 l 285 362 l 285 390 l 455 647 l 552 647 l 552 641 l 379 376 l 552 106 m 318 106 l 222 106 l 53 362 l 53 390 l 222 647 l 318 647 l 318 641 l 147 376 l 318 106 "},"D":{"x_min":85,"x_max":522,"ha":603,"o":"m 522 191 q 466 54 522 108 q 327 0 411 0 l 85 0 l 85 1061 l 327 1061 q 467 1006 412 1061 q 522 869 522 952 l 522 191 m 428 201 l 428 861 q 395 945 428 913 q 309 978 362 978 l 179 978 l 179 83 l 304 83 q 393 114 359 83 q 428 201 428 146 "},"∙":{"x_min":64,"x_max":167,"ha":231,"o":"m 167 354 l 64 354 l 64 475 l 167 475 l 167 354 "},"ł":{"x_min":18,"x_max":229,"ha":247,"o":"m 168 0 l 79 0 l 79 1061 l 168 1061 l 168 0 m 229 430 l 18 272 l 18 368 l 229 526 l 229 430 "},"ÿ":{"x_min":36,"x_max":446,"ha":483,"o":"m 446 660 l 287 5 l 221 -250 l 132 -250 l 199 5 l 36 660 l 129 660 l 241 140 l 356 660 l 446 660 m 380 718 l 280 718 l 280 820 l 380 820 l 380 718 m 205 718 l 105 718 l 105 820 l 205 820 l 205 718 "},"Ł":{"x_min":25,"x_max":424,"ha":468,"o":"m 424 0 l 85 0 l 85 1061 l 179 1061 l 179 83 l 424 83 l 424 0 m 334 499 l 25 272 l 25 368 l 334 595 l 334 499 "},"í":{"x_min":47,"x_max":276,"ha":247,"o":"m 168 0 l 79 0 l 79 660 l 168 660 l 168 0 m 276 874 l 110 718 l 47 718 l 47 722 l 148 877 l 276 877 l 276 874 "},"ˆ":{"x_min":118,"x_max":437,"ha":555,"o":"m 437 718 l 378 718 l 276 796 l 173 718 l 118 718 l 118 723 l 251 877 l 304 877 l 437 723 l 437 718 "},"w":{"x_min":37,"x_max":665,"ha":702,"o":"m 665 660 l 528 -1 l 447 -1 l 350 499 l 253 -1 l 174 -1 l 37 660 l 122 660 l 215 152 l 311 660 l 390 660 l 486 152 l 580 660 l 665 660 "},"$":{"x_min":81,"x_max":495,"ha":576,"o":"m 495 83 q 390 5 494 5 q 357 6 378 5 q 328 7 336 7 l 328 -83 l 246 -83 l 246 7 q 217 6 237 7 q 186 5 196 5 q 81 83 81 5 l 81 345 l 175 345 l 175 86 l 246 86 l 246 523 l 111 689 q 81 769 81 726 l 81 975 q 186 1056 81 1056 q 217 1055 196 1056 q 246 1054 237 1054 l 246 1145 l 328 1145 l 328 1054 q 357 1055 336 1054 q 390 1056 378 1056 q 495 975 494 1056 l 495 739 l 401 739 l 401 975 l 328 975 l 328 565 l 464 400 q 495 321 495 363 l 495 83 m 246 661 l 246 975 l 175 975 l 175 751 l 246 661 m 401 86 l 401 340 l 328 428 l 328 86 l 401 86 "},"∫":{"x_min":-22,"x_max":324,"ha":330,"o":"m 324 982 l 196 982 l 196 -196 q 178 -246 196 -225 q 122 -271 157 -271 l -22 -272 l -22 -193 l 106 -193 l 106 984 q 182 1061 106 1061 l 324 1061 l 324 982 "},"\\":{"x_min":31,"x_max":570,"ha":600,"o":"m 570 0 l 479 0 l 31 1061 l 121 1061 l 570 0 "},"Ì":{"x_min":-21,"x_max":208,"ha":276,"o":"m 184 0 l 90 0 l 90 1061 l 184 1061 l 184 0 m 208 1121 l 145 1121 l -21 1277 l -21 1280 l 106 1280 l 208 1125 l 208 1121 "},"µ":{"x_min":74,"x_max":459,"ha":532,"o":"m 459 0 l 369 0 l 369 19 q 244 -1 323 -1 q 163 26 181 -1 l 163 -250 l 74 -250 l 74 660 l 163 660 l 163 171 q 256 77 163 77 q 369 88 320 77 l 369 660 l 459 660 l 459 0 "},"Ç":{"x_min":85,"x_max":510,"ha":590,"o":"m 510 78 q 487 21 510 43 q 431 0 465 0 l 163 0 q 106 21 128 0 q 85 78 85 43 l 85 982 q 106 1039 85 1017 q 163 1061 128 1061 l 431 1061 q 487 1039 465 1061 q 510 982 510 1017 l 510 739 l 415 739 l 415 978 l 179 978 l 179 83 l 415 83 l 415 344 l 510 344 l 510 78 m 422 -207 q 367 -262 422 -262 l 228 -262 q 174 -207 174 -262 l 174 -131 l 245 -131 l 245 -201 l 349 -201 l 349 -128 q 288 -97 318 -113 q 258 -43 258 -78 l 258 2 l 331 2 l 331 -44 q 393 -76 361 -60 q 422 -130 422 -95 l 422 -207 "},"’":{"x_min":60,"x_max":185,"ha":231,"o":"m 185 1061 l 121 727 l 60 727 l 85 1061 l 185 1061 "},"-":{"x_min":65,"x_max":345,"ha":410,"o":"m 345 363 l 65 363 l 65 447 l 345 447 l 345 363 "},"Q":{"x_min":85,"x_max":606,"ha":625,"o":"m 606 -1 l 597 -1 l 527 55 q 454 0 514 0 l 163 0 q 106 21 128 0 q 85 78 85 43 l 85 982 q 106 1039 85 1017 q 163 1061 128 1061 l 454 1061 q 511 1039 489 1061 q 533 982 533 1017 l 533 150 l 606 92 l 606 -1 m 439 83 l 439 124 l 326 218 l 326 311 l 334 311 l 439 225 l 439 978 l 179 978 l 179 83 l 439 83 "},"M":{"x_min":85,"x_max":610,"ha":695,"o":"m 610 0 l 521 0 l 521 671 q 530 755 521 686 l 356 100 l 338 100 l 164 755 q 174 671 174 685 l 174 0 l 85 0 l 85 1061 l 172 1061 l 344 371 q 347 340 346 365 q 350 371 347 350 l 523 1061 l 610 1061 l 610 0 "},"C":{"x_min":85,"x_max":510,"ha":590,"o":"m 510 78 q 487 21 510 43 q 431 0 465 0 l 163 0 q 106 21 128 0 q 85 78 85 43 l 85 982 q 106 1039 85 1017 q 163 1061 128 1061 l 431 1061 q 487 1039 465 1061 q 510 982 510 1017 l 510 739 l 415 739 l 415 978 l 179 978 l 179 83 l 415 83 l 415 344 l 510 344 l 510 78 "},"œ":{"x_min":74,"x_max":722,"ha":796,"o":"m 722 78 q 643 0 722 0 l 152 0 q 74 78 74 0 l 74 581 q 152 660 74 660 l 643 660 q 722 581 722 660 l 722 345 l 690 314 l 444 314 l 444 75 l 636 75 l 636 196 l 722 196 l 722 78 m 636 386 l 636 585 l 444 585 l 444 386 l 636 386 m 359 75 l 359 585 l 163 585 l 163 75 l 359 75 "},"!":{"x_min":85.65625,"x_max":190.359375,"ha":277,"o":"m 190 1061 l 169 238 l 106 238 l 85 1061 l 190 1061 m 189 0 l 87 0 l 87 119 l 189 119 l 189 0 "},"ç":{"x_min":74,"x_max":440,"ha":513,"o":"m 440 78 q 361 0 439 0 l 152 0 q 74 78 74 0 l 74 581 q 152 660 74 659 l 361 660 q 440 581 439 659 l 440 451 l 351 451 l 351 581 l 164 581 l 164 79 l 351 79 l 351 226 l 440 226 l 440 78 m 386 -209 q 331 -264 386 -264 l 192 -264 q 138 -209 138 -264 l 138 -133 l 209 -133 l 209 -203 l 313 -203 l 313 -130 q 252 -99 282 -115 q 222 -45 222 -80 l 222 0 l 295 0 l 295 -46 q 357 -78 325 -62 q 386 -132 386 -97 l 386 -209 "},"È":{"x_min":85,"x_max":434,"ha":496,"o":"m 434 0 l 85 0 l 85 1061 l 430 1061 l 430 978 l 179 978 l 179 582 l 407 582 l 407 497 l 179 497 l 179 83 l 434 83 l 434 0 m 339 1121 l 276 1121 l 110 1277 l 110 1280 l 237 1280 l 339 1125 l 339 1121 "},"ﬁ":{"x_min":30,"x_max":513,"ha":592,"o":"m 513 0 l 424 0 l 424 581 l 196 581 l 196 0 l 107 0 l 107 581 l 30 581 l 30 660 l 107 660 l 107 982 q 185 1061 107 1061 l 434 1061 q 513 982 513 1061 l 513 804 l 424 804 l 424 982 l 196 982 l 196 660 l 513 660 l 513 0 "},"{":{"x_min":43,"x_max":414,"ha":473,"o":"m 414 -168 l 296 -168 q 196 -128 235 -168 q 157 -29 157 -89 l 157 352 l 43 458 l 43 477 l 157 582 l 157 921 q 196 1021 157 982 q 296 1061 235 1061 l 414 1061 l 414 978 q 382 979 405 978 q 347 981 359 981 q 252 910 252 981 l 252 595 q 218 521 252 553 q 150 467 184 494 q 218 413 184 441 q 252 340 252 381 l 252 -18 q 347 -88 252 -88 q 382 -86 359 -88 q 414 -85 405 -85 l 414 -168 "},"X":{"x_min":29,"x_max":504.015625,"ha":533,"o":"m 504 0 l 407 0 l 265 435 l 123 0 l 29 0 q 29 5 29 4 l 218 543 q 40 1061 39 1058 l 139 1061 l 266 658 l 399 1061 l 493 1061 q 493 1054 493 1056 l 317 548 q 504 0 505 2 "},"ô":{"x_min":74,"x_max":453,"ha":526,"o":"m 453 78 q 374 0 452 0 l 152 0 q 74 78 74 0 l 74 581 q 152 660 74 660 l 374 660 q 453 581 452 660 l 453 78 m 363 79 l 363 581 l 164 581 l 164 79 l 363 79 m 424 718 l 365 718 l 263 796 l 160 718 l 105 718 l 105 723 l 238 877 l 291 877 l 424 723 l 424 718 "},"¼":{"x_min":20,"x_max":743,"ha":746,"o":"m 184 521 l 95 521 l 95 791 l 59 791 l 118 1061 l 184 1061 l 184 521 m 681 1054 l 98 0 l 20 0 l 20 5 l 604 1061 l 681 1061 l 681 1054 m 743 129 l 688 129 l 688 -1 l 608 -1 l 608 129 l 389 129 l 389 187 l 519 539 l 601 539 l 472 200 l 608 200 l 608 387 l 688 387 l 688 200 l 743 200 l 743 129 "},"#":{"x_min":34.671875,"x_max":689.34375,"ha":724,"o":"m 689 693 l 557 693 l 500 368 l 640 368 l 640 290 l 486 290 l 435 0 l 349 0 l 401 290 l 237 290 l 187 0 l 102 0 l 152 290 l 34 290 l 34 368 l 167 368 l 223 693 l 83 693 l 83 771 l 237 771 l 289 1061 l 375 1061 l 322 771 l 486 771 l 537 1061 l 623 1061 l 571 771 l 689 771 l 689 693 m 472 693 l 308 693 l 251 368 l 414 368 l 472 693 "},"Ê":{"x_min":85,"x_max":434,"ha":496,"o":"m 434 0 l 85 0 l 85 1061 l 430 1061 l 430 978 l 179 978 l 179 582 l 407 582 l 407 497 l 179 497 l 179 83 l 434 83 l 434 0 m 417 1121 l 358 1121 l 256 1199 l 153 1121 l 98 1121 l 98 1126 l 231 1280 l 284 1280 l 417 1126 l 417 1121 "},")":{"x_min":47,"x_max":295,"ha":366,"o":"m 295 462 q 127 -136 295 137 l 47 -136 l 47 -128 q 164 156 129 21 q 202 462 202 294 q 164 768 202 630 q 47 1053 129 903 l 47 1061 l 127 1061 q 295 462 295 787 "},"Å":{"x_min":43,"x_max":513,"ha":556,"o":"m 513 0 l 419 0 l 381 236 l 171 236 l 134 0 l 43 0 l 43 2 l 232 1064 l 325 1064 l 513 0 m 369 319 l 276 894 l 183 319 l 369 319 m 409 1092 q 330 1014 409 1014 l 226 1014 q 148 1092 148 1014 l 148 1188 q 226 1267 148 1267 l 330 1267 q 409 1188 409 1267 l 409 1092 m 340 1076 l 340 1204 l 217 1204 l 217 1076 l 340 1076 "},"Δ":{"x_min":31,"x_max":526,"ha":555,"o":"m 526 0 l 31 0 l 31 83 l 232 1064 l 325 1064 q 431 546 332 1024 q 526 80 526 81 l 526 0 m 432 90 l 277 894 l 123 90 l 432 90 "},"ø":{"x_min":12.5,"x_max":518.5,"ha":526,"o":"m 453 78 q 374 0 452 0 l 152 0 q 74 78 74 0 l 74 581 q 152 660 74 660 l 374 660 q 453 581 452 660 l 453 78 m 363 79 l 363 581 l 164 581 l 164 79 l 363 79 m 518 594 l 12 0 l 12 69 l 518 661 l 518 594 "},"â":{"x_min":71,"x_max":448,"ha":522,"o":"m 448 0 l 358 0 l 358 18 q 251 4 305 10 q 145 -4 185 -4 q 71 74 71 -4 l 71 307 q 142 386 71 385 l 360 386 l 360 585 l 165 585 l 165 473 l 78 473 l 78 583 q 149 660 78 659 l 369 660 q 448 582 447 659 l 448 0 m 360 82 l 360 315 l 159 315 l 159 78 l 360 82 m 421 718 l 362 718 l 260 796 l 157 718 l 102 718 l 102 723 l 235 877 l 288 877 l 421 723 l 421 718 "},"}":{"x_min":59,"x_max":430,"ha":473,"o":"m 430 458 l 316 352 l 316 -29 q 276 -128 316 -88 q 176 -168 236 -168 l 59 -168 l 59 -86 q 90 -87 67 -86 q 125 -88 113 -88 q 222 -18 222 -88 l 222 340 q 255 413 222 381 q 323 467 289 441 q 255 521 289 494 q 222 595 222 553 l 222 910 q 125 981 222 981 q 90 980 113 981 q 59 979 67 979 l 59 1061 l 176 1061 q 276 1021 236 1061 q 316 921 316 981 l 316 582 l 430 477 l 430 458 "},"‰":{"x_min":58,"x_max":1281,"ha":1346,"o":"m 387 599 q 364 544 387 567 q 308 521 341 521 l 136 521 q 82 546 106 521 q 58 599 58 571 l 58 982 q 82 1035 58 1009 q 136 1061 107 1061 l 308 1061 q 363 1036 339 1061 q 387 982 387 1012 l 387 599 m 305 597 l 305 982 l 140 982 l 140 597 l 305 597 m 798 1057 l 215 2 l 137 2 l 137 8 l 721 1063 l 798 1063 l 798 1057 m 874 78 q 851 23 874 46 q 795 0 828 0 l 623 0 q 569 25 593 0 q 545 78 545 50 l 545 461 q 569 514 545 488 q 623 540 594 540 l 795 540 q 850 515 826 540 q 874 461 874 491 l 874 78 m 792 76 l 792 461 l 627 461 l 627 76 l 792 76 m 1281 78 q 1258 23 1281 46 q 1202 0 1235 0 l 1030 0 q 976 25 1000 0 q 952 78 952 50 l 952 461 q 976 514 952 488 q 1030 540 1001 540 l 1202 540 q 1257 515 1233 540 q 1281 461 1281 491 l 1281 78 m 1199 76 l 1199 461 l 1034 461 l 1034 76 l 1199 76 "},"Ä":{"x_min":43,"x_max":513,"ha":556,"o":"m 513 0 l 419 0 l 381 236 l 171 236 l 134 0 l 43 0 l 43 2 l 232 1064 l 325 1064 l 513 0 m 369 319 l 276 894 l 183 319 l 369 319 m 416 1121 l 316 1121 l 316 1223 l 416 1223 l 416 1121 m 241 1121 l 141 1121 l 141 1223 l 241 1223 l 241 1121 "},"¸":{"x_min":154,"x_max":402,"ha":555,"o":"m 402 -195 q 347 -250 402 -250 l 208 -250 q 154 -195 154 -250 l 154 -119 l 225 -119 l 225 -189 l 329 -189 l 329 -116 q 268 -85 298 -101 q 238 -31 238 -66 l 238 14 l 311 14 l 311 -32 q 373 -64 341 -48 q 402 -118 402 -83 l 402 -195 "},"a":{"x_min":71,"x_max":448,"ha":522,"o":"m 448 0 l 358 0 l 358 18 q 251 4 305 10 q 145 -4 185 -4 q 71 74 71 -4 l 71 307 q 142 386 71 385 l 360 386 l 360 585 l 165 585 l 165 473 l 78 473 l 78 583 q 149 660 78 659 l 369 660 q 448 582 447 659 l 448 0 m 360 82 l 360 315 l 159 315 l 159 78 l 360 82 "},"—":{"x_min":65,"x_max":810,"ha":876,"o":"m 810 363 l 65 363 l 65 447 l 810 447 l 810 363 "},"=":{"x_min":69,"x_max":543,"ha":612,"o":"m 543 513 l 69 513 l 69 595 l 543 595 l 543 513 m 543 265 l 69 265 l 69 346 l 543 346 l 543 265 "},"N":{"x_min":85,"x_max":523,"ha":608,"o":"m 523 0 l 457 0 l 174 780 l 174 0 l 85 0 l 85 1061 l 155 1061 l 434 294 l 434 1061 l 523 1061 l 523 0 "},"˚":{"x_min":147,"x_max":408,"ha":555,"o":"m 408 796 q 329 718 408 718 l 225 718 q 147 796 147 718 l 147 892 q 225 971 147 971 l 329 971 q 408 892 408 971 l 408 796 m 339 780 l 339 908 l 216 908 l 216 780 l 339 780 "},"ú":{"x_min":74,"x_max":452,"ha":525,"o":"m 452 0 l 363 0 l 363 18 q 257 4 310 10 q 152 -4 194 -4 q 74 74 74 -3 l 74 660 l 163 660 l 163 81 l 363 86 l 363 660 l 452 660 l 452 0 m 411 874 l 245 718 l 182 718 l 182 722 l 283 877 l 411 877 l 411 874 "},"⁄":{"x_min":-221,"x_max":440,"ha":220,"o":"m 440 1054 l -143 0 l -221 0 l -221 5 l 363 1061 l 440 1061 l 440 1054 "},"2":{"x_min":58,"x_max":479,"ha":542,"o":"m 479 0 l 58 0 l 58 50 l 383 724 l 383 978 l 167 978 l 167 739 l 72 739 l 72 982 q 93 1038 72 1016 q 150 1061 115 1061 l 399 1061 q 455 1038 433 1061 q 478 982 478 1016 l 478 760 q 452 667 478 719 l 172 83 l 479 83 l 479 0 "},"ü":{"x_min":74,"x_max":452,"ha":525,"o":"m 452 0 l 363 0 l 363 18 q 257 4 310 10 q 152 -4 194 -4 q 74 74 74 -3 l 74 660 l 163 660 l 163 81 l 363 86 l 363 660 l 452 660 l 452 0 m 401 718 l 301 718 l 301 820 l 401 820 l 401 718 m 226 718 l 126 718 l 126 820 l 226 820 l 226 718 "},"¯":{"x_min":128,"x_max":428,"ha":555,"o":"m 428 739 l 128 739 l 128 811 l 428 811 l 428 739 "},"Z":{"x_min":33,"x_max":440,"ha":478,"o":"m 440 0 l 33 0 q 33 49 33 49 l 331 978 l 62 978 l 62 1061 l 440 1061 q 440 1012 440 1012 l 142 83 l 440 83 l 440 0 "},"u":{"x_min":74,"x_max":452,"ha":525,"o":"m 452 0 l 363 0 l 363 18 q 257 4 310 10 q 152 -4 194 -4 q 74 74 74 -3 l 74 660 l 163 660 l 163 81 l 363 86 l 363 660 l 452 660 l 452 0 "},"":{"x_min":30.359375,"x_max":513,"ha":592,"o":"m 513 0 l 424 0 l 424 982 l 196 982 l 196 660 l 309 660 l 309 581 l 196 581 l 196 0 l 107 0 l 107 581 l 30 581 l 30 660 l 107 660 l 107 982 q 185 1061 107 1061 l 513 1061 l 513 0 "},"˜":{"x_min":131,"x_max":426,"ha":555,"o":"m 426 767 q 375 717 426 717 q 286 741 346 717 q 203 778 244 759 l 203 718 l 131 718 l 131 801 q 181 851 131 851 q 270 826 210 851 q 353 790 311 808 l 353 850 l 426 850 l 426 767 "},"Ó":{"x_min":85,"x_max":533,"ha":618,"o":"m 533 78 q 510 21 533 43 q 454 0 488 0 l 163 0 q 106 21 128 0 q 85 78 85 43 l 85 982 q 106 1039 85 1017 q 163 1061 128 1061 l 454 1061 q 510 1039 488 1061 q 533 982 533 1017 l 533 78 m 439 83 l 439 978 l 179 978 l 179 83 l 439 83 m 460 1277 l 294 1121 l 231 1121 l 231 1125 l 332 1280 l 460 1280 l 460 1277 "},"k":{"x_min":74,"x_max":444,"ha":465,"o":"m 444 0 l 346 0 l 164 336 l 164 0 l 74 0 l 74 1061 l 164 1061 l 164 387 l 333 660 l 430 660 l 430 657 l 239 365 l 444 0 "},"ˇ":{"x_min":114,"x_max":442,"ha":555,"o":"m 442 872 l 304 718 l 251 718 l 114 872 l 114 877 l 172 877 l 279 797 l 386 877 l 442 877 l 442 872 "},"Ù":{"x_min":85,"x_max":525,"ha":610,"o":"m 525 78 q 502 21 525 43 q 446 0 480 0 l 163 0 q 106 21 128 0 q 85 78 85 43 l 85 1061 l 179 1061 l 179 83 l 431 83 l 431 1061 l 525 1061 l 525 78 m 383 1120 l 320 1120 l 154 1276 l 154 1279 l 281 1279 l 383 1124 l 383 1120 "},"Ÿ":{"x_min":31,"x_max":513,"ha":544,"o":"m 513 1054 l 383 625 q 319 410 359 561 l 319 0 l 225 0 l 225 410 q 195 519 215 462 q 160 625 163 616 l 31 1054 q 31 1061 31 1055 l 127 1061 l 273 530 l 418 1061 l 513 1061 q 513 1054 513 1056 m 409 1121 l 309 1121 l 309 1223 l 409 1223 l 409 1121 m 234 1121 l 134 1121 l 134 1223 l 234 1223 l 234 1121 "},"€":{"x_min":36,"x_max":496,"ha":560,"o":"m 496 75 q 474 20 496 41 q 419 0 452 0 l 173 0 q 118 20 139 0 q 98 75 98 41 l 98 400 l 36 400 l 36 481 l 98 481 l 98 594 l 36 594 l 36 676 l 98 676 l 98 986 q 118 1040 98 1019 q 173 1061 139 1061 l 419 1061 q 474 1040 452 1061 q 496 986 496 1019 l 496 807 l 401 807 l 401 978 l 192 978 l 192 676 l 461 676 l 461 594 l 192 594 l 192 481 l 461 481 l 461 400 l 192 400 l 192 83 l 401 83 l 401 256 l 496 256 l 496 75 "},"¢":{"x_min":74,"x_max":440,"ha":513,"o":"m 440 281 q 361 201 439 201 q 327 202 350 201 q 293 203 304 203 l 293 0 l 221 0 l 221 203 q 186 202 209 203 q 152 201 163 201 q 74 281 74 201 l 74 784 q 152 863 74 863 q 186 863 163 863 q 221 863 209 863 l 221 1061 l 293 1061 l 293 863 q 327 863 304 863 q 361 863 350 863 q 440 784 439 863 l 440 654 l 351 654 l 351 784 l 293 784 l 293 282 l 351 282 l 351 430 l 440 430 l 440 281 m 221 282 l 221 784 l 164 784 l 164 282 l 221 282 "},"Ω":{"x_min":40,"x_max":676,"ha":714,"o":"m 676 -1 l 414 -1 l 414 331 l 538 331 l 538 977 l 179 977 l 179 331 l 303 331 l 303 -1 l 40 -1 l 40 87 l 224 87 l 224 248 l 159 248 q 105 269 126 248 q 85 323 85 290 l 85 985 q 105 1039 85 1018 q 159 1061 126 1061 l 555 1061 q 610 1039 588 1061 q 632 985 632 1018 l 632 323 q 611 269 632 290 q 557 248 590 248 l 493 248 l 493 87 l 676 87 l 676 -1 "},"ß":{"x_min":74,"x_max":460,"ha":535,"o":"m 460 78 q 381 0 460 0 l 261 0 l 261 79 l 371 79 l 371 442 l 260 545 l 260 568 l 370 669 l 370 905 q 295 982 370 982 l 164 982 l 164 0 l 74 0 l 74 1061 l 318 1061 q 419 1020 379 1061 q 459 919 459 980 l 459 705 q 429 619 459 651 q 351 556 390 588 q 430 494 391 525 q 460 409 460 465 l 460 78 "},"é":{"x_min":74,"x_max":443,"ha":518,"o":"m 443 76 q 364 0 442 0 l 152 0 q 74 78 74 0 l 74 581 q 152 660 74 660 l 364 660 q 443 581 442 660 l 443 345 l 412 314 l 162 314 l 162 75 l 356 75 l 356 196 l 443 196 l 443 76 m 356 386 l 356 585 l 162 585 l 162 386 l 356 386 m 402 874 l 236 718 l 173 718 l 173 722 l 274 877 l 402 877 l 402 874 "},"s":{"x_min":70,"x_max":430,"ha":499,"o":"m 430 78 q 351 0 430 0 l 148 0 q 70 78 70 0 l 70 226 l 159 226 l 159 78 l 341 78 l 341 209 l 104 402 q 71 473 71 430 l 71 581 q 150 660 71 659 l 349 660 q 429 581 429 659 l 429 452 l 342 452 l 342 582 l 159 582 l 159 466 l 396 273 q 430 201 430 246 l 430 78 "},"B":{"x_min":85,"x_max":510,"ha":590,"o":"m 510 78 q 488 21 510 43 q 431 0 466 0 l 85 0 l 85 1061 l 428 1061 q 485 1039 463 1061 q 507 982 507 1017 l 507 634 q 469 586 507 605 q 394 555 431 570 l 474 521 q 510 476 510 507 l 510 78 m 412 658 l 412 978 l 179 978 l 179 595 l 318 595 l 412 658 m 415 83 l 415 450 l 319 513 l 179 513 l 179 83 l 415 83 "},"…":{"x_min":64,"x_max":629,"ha":694,"o":"m 629 0 l 527 0 l 527 119 l 629 119 l 629 0 m 398 0 l 296 0 l 296 119 l 398 119 l 398 0 m 167 0 l 64 0 l 64 119 l 167 119 l 167 0 "},"?":{"x_min":61,"x_max":466,"ha":530,"o":"m 466 747 q 445 674 466 706 l 307 463 l 307 238 l 212 238 l 212 440 q 231 514 212 485 l 372 724 l 372 978 l 155 978 l 155 739 l 61 739 l 61 982 q 83 1038 61 1016 q 139 1061 105 1061 l 387 1061 q 443 1038 421 1061 q 466 982 466 1016 l 466 747 m 311 0 l 208 0 l 208 119 l 311 119 l 311 0 "},"H":{"x_min":85,"x_max":529,"ha":614,"o":"m 529 0 l 435 0 l 435 510 l 179 510 l 179 0 l 85 0 l 85 1061 l 179 1061 l 179 595 l 435 595 l 435 1061 l 529 1061 l 529 0 "},"î":{"x_min":-35,"x_max":284,"ha":247,"o":"m 168 0 l 79 0 l 79 660 l 168 660 l 168 0 m 284 708 l 225 708 l 123 786 l 20 708 l -35 708 l -35 713 l 98 867 l 151 867 l 284 713 l 284 708 "},"c":{"x_min":74,"x_max":440,"ha":513,"o":"m 440 78 q 361 0 439 0 l 152 0 q 74 78 74 0 l 74 581 q 152 660 74 659 l 361 660 q 440 581 439 659 l 440 451 l 351 451 l 351 581 l 164 581 l 164 79 l 351 79 l 351 226 l 440 226 l 440 78 "},"¶":{"x_min":65,"x_max":558,"ha":643,"o":"m 558 0 l 468 0 l 468 421 l 348 421 l 348 0 l 258 0 l 258 421 l 143 421 q 86 443 108 421 q 65 499 65 465 l 65 982 q 86 1039 65 1017 q 143 1061 108 1061 l 558 1061 l 558 0 m 468 505 l 468 978 l 287 978 l 287 505 l 468 505 "},"−":{"x_min":81,"x_max":558,"ha":639,"o":"m 558 424 l 81 424 l 81 508 l 558 508 l 558 424 "},"≠":{"x_min":69,"x_max":543,"ha":612,"o":"m 543 265 l 307 265 l 253 47 l 174 66 l 222 265 l 69 265 l 69 346 l 243 346 l 284 513 l 69 513 l 69 595 l 305 595 l 359 812 l 438 792 l 389 595 l 543 595 l 543 513 l 368 513 l 327 346 l 543 346 l 543 265 "},"•":{"x_min":89,"x_max":497,"ha":586,"o":"m 497 404 q 418 326 497 326 l 167 326 q 89 404 89 326 l 89 654 q 167 733 89 732 l 418 733 q 497 654 496 732 l 497 404 "},"¥":{"x_min":31,"x_max":512,"ha":543,"o":"m 512 1054 l 384 630 l 500 630 l 500 551 l 360 551 l 323 428 l 500 428 l 500 349 l 319 349 l 319 0 l 225 0 l 225 349 l 42 349 l 42 428 l 220 428 l 182 551 l 42 551 l 42 630 l 158 630 q 31 1061 30 1058 l 127 1061 l 273 530 l 417 1061 l 512 1061 q 512 1054 512 1056 "},"(":{"x_min":71,"x_max":321,"ha":366,"o":"m 321 -136 l 239 -136 q 71 462 71 137 q 239 1061 71 787 l 321 1061 l 321 1053 q 202 768 238 903 q 166 462 166 630 q 202 156 166 294 q 321 -128 238 21 l 321 -136 "},"U":{"x_min":85,"x_max":525,"ha":610,"o":"m 525 78 q 502 21 525 43 q 446 0 480 0 l 163 0 q 106 21 128 0 q 85 78 85 43 l 85 1061 l 179 1061 l 179 83 l 431 83 l 431 1061 l 525 1061 l 525 78 "},"◊":{"x_min":20,"x_max":541,"ha":560,"o":"m 541 389 l 305 45 l 256 45 l 20 389 l 256 734 l 305 734 l 541 389 m 447 389 l 280 641 l 114 389 l 280 138 l 447 389 "},"Ñ":{"x_min":85,"x_max":523,"ha":608,"o":"m 523 0 l 457 0 l 174 780 l 174 0 l 85 0 l 85 1061 l 155 1061 l 434 294 l 434 1061 l 523 1061 l 523 0 m 447 1170 q 396 1120 447 1120 q 307 1144 367 1120 q 224 1181 265 1162 l 224 1121 l 152 1121 l 152 1204 q 202 1254 152 1254 q 291 1229 231 1254 q 374 1193 332 1211 l 374 1253 l 447 1253 l 447 1170 "},"F":{"x_min":85,"x_max":427,"ha":472,"o":"m 427 978 l 179 978 l 179 575 l 407 575 l 407 490 l 179 490 l 179 0 l 85 0 l 85 1061 l 427 1061 l 427 978 "},"­":{"x_min":81,"x_max":558,"ha":639,"o":"m 558 424 l 81 424 l 81 508 l 558 508 l 558 424 "},":":{"x_min":64,"x_max":167,"ha":231,"o":"m 167 459 l 64 459 l 64 578 l 167 578 l 167 459 m 167 0 l 64 0 l 64 119 l 167 119 l 167 0 "},"Û":{"x_min":85,"x_max":525,"ha":610,"o":"m 525 78 q 502 21 525 43 q 446 0 480 0 l 163 0 q 106 21 128 0 q 85 78 85 43 l 85 1061 l 179 1061 l 179 83 l 431 83 l 431 1061 l 525 1061 l 525 78 m 465 1121 l 406 1121 l 304 1199 l 201 1121 l 146 1121 l 146 1126 l 279 1280 l 332 1280 l 465 1126 l 465 1121 "},"*":{"x_min":66,"x_max":484,"ha":551,"o":"m 484 775 l 439 702 l 299 806 l 316 630 l 233 630 l 251 806 l 109 702 l 66 775 l 228 844 l 66 915 l 109 987 l 251 884 l 233 1061 l 316 1061 l 299 884 l 439 987 l 484 915 l 321 844 l 484 775 "},"†":{"x_min":57,"x_max":553,"ha":610,"o":"m 553 694 l 350 694 l 350 0 l 260 0 l 260 694 l 57 694 l 57 773 l 260 773 l 260 1061 l 350 1061 l 350 773 l 553 773 l 553 694 "},"∕":{"x_min":-221,"x_max":440,"ha":220,"o":"m 440 1054 l -143 0 l -221 0 l -221 5 l 363 1061 l 440 1061 l 440 1054 "},"°":{"x_min":62,"x_max":389,"ha":453,"o":"m 389 602 q 317 532 389 532 l 134 532 q 62 602 62 532 l 62 990 q 134 1061 62 1061 l 317 1061 q 389 990 389 1061 l 389 602 m 312 601 l 312 992 l 139 992 l 139 601 l 312 601 "},"V":{"x_min":43,"x_max":500,"ha":543,"o":"m 500 1061 l 316 -3 l 227 -3 l 43 1061 l 137 1061 l 268 216 q 272 147 268 216 q 277 216 273 170 l 409 1061 l 500 1061 "},"å":{"x_min":71,"x_max":448,"ha":522,"o":"m 448 0 l 358 0 l 358 18 q 251 4 305 10 q 145 -4 185 -4 q 71 74 71 -4 l 71 307 q 142 386 71 385 l 360 386 l 360 585 l 165 585 l 165 473 l 78 473 l 78 583 q 149 660 78 659 l 369 660 q 448 582 447 659 l 448 0 m 360 82 l 360 315 l 159 315 l 159 78 l 360 82 m 393 796 q 314 718 393 718 l 210 718 q 132 796 132 718 l 132 892 q 210 971 132 971 l 314 971 q 393 892 393 971 l 393 796 m 324 780 l 324 908 l 201 908 l 201 780 l 324 780 "}," ":{"x_min":0,"x_max":0,"ha":136},"0":{"x_min":85,"x_max":518,"ha":603,"o":"m 518 78 q 495 22 518 44 q 439 0 473 0 l 163 0 q 107 22 129 0 q 85 78 85 44 l 85 982 q 107 1038 85 1016 q 163 1061 129 1061 l 439 1061 q 495 1038 473 1061 q 518 982 518 1016 l 518 78 m 424 83 l 424 978 l 179 978 l 179 83 l 424 83 "},"”":{"x_min":60,"x_max":381,"ha":427,"o":"m 381 1061 l 315 727 l 254 727 l 280 1061 l 381 1061 m 185 1061 l 121 727 l 60 727 l 85 1061 l 185 1061 "},"¾":{"x_min":28,"x_max":839,"ha":882,"o":"m 797 1054 l 214 0 l 136 0 l 136 5 l 720 1061 l 797 1061 l 797 1054 m 361 598 q 339 544 361 567 q 282 521 317 521 l 106 521 q 28 599 28 521 l 28 691 l 106 691 l 106 595 l 283 595 l 283 703 l 159 780 l 159 826 l 274 893 l 274 985 l 119 985 l 119 898 l 38 898 l 38 982 q 121 1061 38 1061 l 267 1061 q 351 994 351 1061 l 351 906 q 319 842 351 868 q 253 802 286 822 q 327 757 290 780 q 361 686 361 731 l 361 598 m 839 129 l 784 129 l 784 -1 l 704 -1 l 704 129 l 485 129 l 485 187 l 615 539 l 697 539 l 568 200 l 704 200 l 704 387 l 784 387 l 784 200 l 839 200 l 839 129 "},"@":{"x_min":84,"x_max":696,"ha":781,"o":"m 696 0 l 129 0 q 84 46 84 0 l 84 1015 q 129 1061 84 1061 l 651 1061 q 696 1015 696 1061 l 696 281 q 651 235 696 235 l 308 235 q 260 282 260 235 l 260 531 q 308 580 260 580 l 450 580 l 450 770 l 334 770 l 334 658 l 265 658 l 265 783 q 313 832 265 832 l 469 832 q 518 783 518 832 l 518 287 l 645 287 l 645 1014 l 136 1014 l 136 47 l 696 47 l 696 0 m 450 296 l 450 519 l 329 519 l 329 296 l 450 296 "},"ö":{"x_min":74,"x_max":453,"ha":526,"o":"m 453 78 q 374 0 452 0 l 152 0 q 74 78 74 0 l 74 581 q 152 660 74 660 l 374 660 q 453 581 452 660 l 453 78 m 363 79 l 363 581 l 164 581 l 164 79 l 363 79 m 401 718 l 301 718 l 301 820 l 401 820 l 401 718 m 226 718 l 126 718 l 126 820 l 226 820 l 226 718 "},"i":{"x_min":77.640625,"x_max":169.359375,"ha":247,"o":"m 169 805 l 77 805 l 77 919 l 169 919 l 169 805 m 168 0 l 79 0 l 79 660 l 168 660 l 168 0 "},"≤":{"x_min":52,"x_max":397,"ha":473,"o":"m 397 205 l 392 205 l 52 439 l 52 488 l 397 725 l 397 631 l 144 464 l 397 299 l 397 205 m 397 98 l 52 98 l 52 179 l 397 179 l 397 98 "},"Õ":{"x_min":85,"x_max":533,"ha":618,"o":"m 533 78 q 510 21 533 43 q 454 0 488 0 l 163 0 q 106 21 128 0 q 85 78 85 43 l 85 982 q 106 1039 85 1017 q 163 1061 128 1061 l 454 1061 q 510 1039 488 1061 q 533 982 533 1017 l 533 78 m 439 83 l 439 978 l 179 978 l 179 83 l 439 83 m 457 1170 q 406 1120 457 1120 q 317 1144 377 1120 q 234 1181 275 1162 l 234 1121 l 162 1121 l 162 1204 q 212 1254 162 1254 q 301 1229 241 1254 q 384 1193 342 1211 l 384 1253 l 457 1253 l 457 1170 "},"þ":{"x_min":74,"x_max":452,"ha":523,"o":"m 452 140 q 411 40 452 80 q 312 0 371 0 l 164 0 l 164 -250 l 74 -250 l 74 1061 l 164 1061 l 164 642 q 269 655 216 648 q 373 664 335 664 q 452 585 452 664 l 452 140 m 362 154 l 362 579 l 164 574 l 164 79 l 288 79 q 362 154 362 79 "},"]":{"x_min":60,"x_max":317,"ha":403,"o":"m 317 -92 q 295 -146 317 -125 q 240 -168 273 -168 l 60 -168 l 60 -85 l 223 -85 l 223 978 l 60 978 l 60 1061 l 240 1061 q 295 1039 273 1061 q 317 985 317 1018 l 317 -92 "},"m":{"x_min":74,"x_max":738,"ha":811,"o":"m 738 0 l 648 0 l 648 579 l 451 573 l 451 0 l 361 0 l 361 579 l 164 573 l 164 0 l 74 0 l 74 660 l 164 660 l 164 641 q 267 655 215 648 q 372 664 331 664 q 438 638 416 664 q 549 654 494 646 q 659 664 622 664 q 738 585 738 664 l 738 0 "},"8":{"x_min":82,"x_max":512,"ha":598,"o":"m 512 78 q 489 22 512 44 q 433 0 467 0 l 160 0 q 103 22 125 0 q 82 78 82 44 l 82 420 q 116 489 82 466 l 219 555 l 119 617 q 84 686 84 640 l 84 982 q 107 1038 84 1016 q 164 1061 129 1061 l 431 1061 q 487 1038 465 1061 q 509 982 509 1016 l 509 686 q 474 617 509 640 l 374 555 l 475 489 q 512 420 512 465 l 512 78 m 414 673 l 414 978 l 178 978 l 178 673 l 296 594 l 414 673 m 417 83 l 417 434 l 296 514 l 176 434 l 176 83 l 417 83 "},"ž":{"x_min":42,"x_max":395,"ha":443,"o":"m 389 0 l 42 0 l 42 41 l 282 579 l 67 579 l 67 660 l 389 660 l 389 617 l 147 81 l 389 81 l 389 0 m 395 872 l 257 718 l 204 718 l 67 872 l 67 877 l 125 877 l 232 797 l 339 877 l 395 877 l 395 872 "},"R":{"x_min":85,"x_max":536,"ha":592,"o":"m 536 0 l 437 0 l 240 568 l 252 588 l 421 588 l 421 978 l 179 978 l 179 0 l 85 0 l 85 1061 l 436 1061 q 493 1039 471 1061 q 515 982 515 1017 l 515 585 q 412 507 515 507 q 382 508 401 507 q 353 509 362 509 q 536 0 445 255 "},"á":{"x_min":71,"x_max":448,"ha":522,"o":"m 448 0 l 358 0 l 358 18 q 251 4 305 10 q 145 -4 185 -4 q 71 74 71 -4 l 71 307 q 142 386 71 385 l 360 386 l 360 585 l 165 585 l 165 473 l 78 473 l 78 583 q 149 660 78 659 l 369 660 q 448 582 447 659 l 448 0 m 360 82 l 360 315 l 159 315 l 159 78 l 360 82 m 410 874 l 244 718 l 181 718 l 181 722 l 282 877 l 410 877 l 410 874 "},"×":{"x_min":118,"x_max":519.6875,"ha":639,"o":"m 519 599 l 380 460 l 519 322 l 456 260 l 318 398 l 180 260 l 118 321 l 256 460 l 118 599 l 181 661 l 319 522 l 457 661 l 519 599 "},"o":{"x_min":74,"x_max":453,"ha":526,"o":"m 453 78 q 374 0 452 0 l 152 0 q 74 78 74 0 l 74 581 q 152 660 74 660 l 374 660 q 453 581 452 660 l 453 78 m 363 79 l 363 581 l 164 581 l 164 79 l 363 79 "},"5":{"x_min":82,"x_max":492,"ha":570,"o":"m 492 78 q 469 22 492 44 q 413 0 447 0 l 160 0 q 103 22 125 0 q 82 78 82 44 l 82 344 l 176 344 l 176 83 l 398 83 l 398 583 l 85 583 l 97 1061 l 484 1061 l 484 978 l 188 978 l 177 666 l 413 666 q 469 645 447 666 q 492 591 492 624 l 492 78 "},"õ":{"x_min":74,"x_max":453,"ha":526,"o":"m 453 78 q 374 0 452 0 l 152 0 q 74 78 74 0 l 74 581 q 152 660 74 660 l 374 660 q 453 581 452 660 l 453 78 m 363 79 l 363 581 l 164 581 l 164 79 l 363 79 m 412 767 q 361 717 412 717 q 272 741 332 717 q 189 778 230 759 l 189 718 l 117 718 l 117 801 q 167 851 117 851 q 256 826 196 851 q 339 790 297 808 l 339 850 l 412 850 l 412 767 "},"7":{"x_min":49,"x_max":470,"ha":505,"o":"m 470 1012 l 242 0 l 149 0 l 370 978 l 143 978 l 143 822 l 49 822 l 49 1061 l 470 1061 q 470 1012 470 1012 "},"K":{"x_min":85,"x_max":528,"ha":535,"o":"m 528 0 l 424 0 l 179 509 l 179 0 l 85 0 l 85 1061 l 179 1061 l 179 584 l 402 1061 l 504 1061 l 504 1054 l 263 549 l 528 0 "},",":{"x_min":55,"x_max":180,"ha":231,"o":"m 180 119 l 120 -75 l 55 -75 l 75 119 l 180 119 "},"d":{"x_min":71,"x_max":450,"ha":525,"o":"m 450 0 l 360 0 l 360 18 q 200 -4 215 -4 q 106 35 141 -4 q 71 133 71 74 l 71 518 q 111 619 71 579 q 212 660 151 660 l 360 660 l 360 1061 l 450 1061 l 450 0 m 360 82 l 360 581 l 235 581 q 161 504 161 581 l 161 151 q 235 75 161 75 q 360 82 253 75 "},"¨":{"x_min":140,"x_max":415,"ha":555,"o":"m 415 718 l 315 718 l 315 820 l 415 820 l 415 718 m 240 718 l 140 718 l 140 820 l 240 820 l 240 718 "},"Ô":{"x_min":85,"x_max":533,"ha":618,"o":"m 533 78 q 510 21 533 43 q 454 0 488 0 l 163 0 q 106 21 128 0 q 85 78 85 43 l 85 982 q 106 1039 85 1017 q 163 1061 128 1061 l 454 1061 q 510 1039 488 1061 q 533 982 533 1017 l 533 78 m 439 83 l 439 978 l 179 978 l 179 83 l 439 83 m 469 1121 l 410 1121 l 308 1199 l 205 1121 l 150 1121 l 150 1126 l 283 1280 l 336 1280 l 469 1126 l 469 1121 "},"E":{"x_min":85,"x_max":434,"ha":496,"o":"m 434 0 l 85 0 l 85 1061 l 430 1061 l 430 978 l 179 978 l 179 582 l 407 582 l 407 497 l 179 497 l 179 83 l 434 83 l 434 0 "},"Y":{"x_min":31,"x_max":513,"ha":544,"o":"m 513 1054 l 383 625 q 319 410 359 561 l 319 0 l 225 0 l 225 410 q 195 519 215 462 q 160 625 163 616 l 31 1054 q 31 1061 31 1055 l 127 1061 l 273 530 l 418 1061 l 513 1061 q 513 1054 513 1056 "},"\"":{"x_min":66,"x_max":360,"ha":427,"o":"m 360 1061 l 341 727 l 281 727 l 262 1061 l 360 1061 m 166 1061 l 145 727 l 86 727 l 66 1061 l 166 1061 "},"‹":{"x_min":53,"x_max":318,"ha":389,"o":"m 318 106 l 222 106 l 53 362 l 53 390 l 222 647 l 318 647 l 318 641 l 147 376 l 318 106 "},"˙":{"x_min":228,"x_max":328,"ha":555,"o":"m 328 718 l 228 718 l 228 821 l 328 821 l 328 718 "},"ê":{"x_min":74,"x_max":443,"ha":518,"o":"m 443 76 q 364 0 442 0 l 152 0 q 74 78 74 0 l 74 581 q 152 660 74 660 l 364 660 q 443 581 442 660 l 443 345 l 412 314 l 162 314 l 162 75 l 356 75 l 356 196 l 443 196 l 443 76 m 356 386 l 356 585 l 162 585 l 162 386 l 356 386 m 419 718 l 360 718 l 258 796 l 155 718 l 100 718 l 100 723 l 233 877 l 286 877 l 419 723 l 419 718 "},"Ï":{"x_min":0,"x_max":275,"ha":276,"o":"m 184 0 l 90 0 l 90 1061 l 184 1061 l 184 0 m 275 1121 l 175 1121 l 175 1223 l 275 1223 l 275 1121 m 100 1121 l 0 1121 l 0 1223 l 100 1223 l 100 1121 "},"„":{"x_min":60,"x_max":381,"ha":427,"o":"m 381 171 l 315 -163 l 254 -163 l 280 171 l 381 171 m 185 171 l 121 -163 l 60 -163 l 85 171 l 185 171 "},"Â":{"x_min":43,"x_max":513,"ha":556,"o":"m 513 0 l 419 0 l 381 236 l 171 236 l 134 0 l 43 0 l 43 2 l 232 1064 l 325 1064 l 513 0 m 369 319 l 276 894 l 183 319 l 369 319 m 438 1111 l 379 1111 l 277 1189 l 174 1111 l 119 1111 l 119 1116 l 252 1270 l 305 1270 l 438 1116 l 438 1111 "},"Í":{"x_min":64,"x_max":293,"ha":276,"o":"m 184 0 l 90 0 l 90 1061 l 184 1061 l 184 0 m 293 1277 l 127 1121 l 64 1121 l 64 1125 l 165 1280 l 293 1280 l 293 1277 "},"´":{"x_min":127,"x_max":356,"ha":555,"o":"m 356 874 l 190 718 l 127 718 l 127 722 l 228 877 l 356 877 l 356 874 "},"ì":{"x_min":-33,"x_max":196,"ha":247,"o":"m 168 0 l 79 0 l 79 660 l 168 660 l 168 0 m 196 718 l 133 718 l -33 874 l -33 877 l 94 877 l 196 722 l 196 718 "},"±":{"x_min":46,"x_max":523.71875,"ha":568,"o":"m 521 441 l 325 441 l 325 269 l 244 269 l 244 441 l 47 441 l 47 518 l 244 518 l 244 697 l 325 697 l 325 518 l 521 518 l 521 441 m 523 129 l 46 129 l 46 212 l 523 212 l 523 129 "},"Ú":{"x_min":85,"x_max":525,"ha":610,"o":"m 525 78 q 502 21 525 43 q 446 0 480 0 l 163 0 q 106 21 128 0 q 85 78 85 43 l 85 1061 l 179 1061 l 179 83 l 431 83 l 431 1061 l 525 1061 l 525 78 m 452 1276 l 286 1120 l 223 1120 l 223 1124 l 324 1279 l 452 1279 l 452 1276 "},"|":{"x_min":98,"x_max":184,"ha":284,"o":"m 184 -232 l 98 -232 l 98 1061 l 184 1061 l 184 -232 "},"§":{"x_min":81,"x_max":498,"ha":579,"o":"m 498 78 q 476 22 498 44 q 419 0 454 0 l 159 0 q 103 22 125 0 q 81 78 81 44 l 81 240 l 174 240 l 174 81 l 406 81 l 406 244 l 124 401 q 81 474 81 425 l 81 578 q 123 651 81 627 l 215 700 l 125 750 q 81 824 81 775 l 81 982 q 103 1038 81 1016 q 159 1061 125 1061 l 419 1061 q 476 1038 454 1061 q 498 982 498 1016 l 498 820 l 406 820 l 406 980 l 174 980 l 174 816 l 454 659 q 498 585 498 634 l 498 481 q 455 409 498 433 l 365 359 l 454 309 q 498 235 498 284 l 498 78 m 411 467 l 411 592 l 289 660 l 169 592 l 169 467 l 290 400 l 411 467 "},"Ý":{"x_min":31,"x_max":513,"ha":544,"o":"m 513 1054 l 383 625 q 319 410 359 561 l 319 0 l 225 0 l 225 410 q 195 519 215 462 q 160 625 163 616 l 31 1054 q 31 1061 31 1055 l 127 1061 l 273 530 l 418 1061 l 513 1061 q 513 1054 513 1056 m 426 1267 l 260 1111 l 197 1111 l 197 1115 l 298 1270 l 426 1270 l 426 1267 "},"b":{"x_min":74,"x_max":453,"ha":526,"o":"m 453 142 q 412 40 453 80 q 312 0 372 0 l 74 0 l 74 1061 l 164 1061 l 164 642 q 269 655 216 648 q 374 664 336 664 q 453 590 453 664 l 453 142 m 363 154 l 363 579 l 164 574 l 164 79 l 288 79 q 363 154 363 79 "},"q":{"x_min":71,"x_max":450,"ha":525,"o":"m 450 -250 l 360 -250 l 360 0 l 212 0 q 111 40 151 0 q 71 142 71 80 l 71 527 q 106 624 71 585 q 200 664 141 664 q 360 642 215 664 l 360 660 l 450 660 l 450 -250 m 360 79 l 360 578 q 235 585 253 585 q 161 508 161 585 l 161 155 q 235 79 161 79 l 360 79 "},"Ω":{"x_min":40,"x_max":676,"ha":714,"o":"m 676 -1 l 414 -1 l 414 331 l 538 331 l 538 977 l 179 977 l 179 331 l 303 331 l 303 -1 l 40 -1 l 40 87 l 224 87 l 224 248 l 159 248 q 105 269 126 248 q 85 323 85 290 l 85 985 q 105 1039 85 1018 q 159 1061 126 1061 l 555 1061 q 610 1039 588 1061 q 632 985 632 1018 l 632 323 q 611 269 632 290 q 557 248 590 248 l 493 248 l 493 87 l 676 87 l 676 -1 "},"Ö":{"x_min":85,"x_max":533,"ha":618,"o":"m 533 78 q 510 21 533 43 q 454 0 488 0 l 163 0 q 106 21 128 0 q 85 78 85 43 l 85 982 q 106 1039 85 1017 q 163 1061 128 1061 l 454 1061 q 510 1039 488 1061 q 533 982 533 1017 l 533 78 m 439 83 l 439 978 l 179 978 l 179 83 l 439 83 m 447 1121 l 347 1121 l 347 1223 l 447 1223 l 447 1121 m 272 1121 l 172 1121 l 172 1223 l 272 1223 l 272 1121 "},"ﬂ":{"x_min":30.359375,"x_max":513,"ha":592,"o":"m 513 0 l 424 0 l 424 982 l 196 982 l 196 660 l 309 660 l 309 581 l 196 581 l 196 0 l 107 0 l 107 581 l 30 581 l 30 660 l 107 660 l 107 982 q 185 1061 107 1061 l 513 1061 l 513 0 "},"z":{"x_min":42,"x_max":389,"ha":443,"o":"m 389 0 l 42 0 l 42 41 l 282 579 l 67 579 l 67 660 l 389 660 l 389 617 l 147 81 l 389 81 l 389 0 "},"™":{"x_min":51,"x_max":686,"ha":757,"o":"m 686 453 l 622 453 l 622 824 l 543 517 l 520 517 l 441 824 l 441 453 l 377 453 l 377 1061 l 438 1061 l 531 679 l 627 1061 l 686 1061 l 686 453 m 307 1000 l 211 1000 l 211 453 l 147 453 l 147 1000 l 51 1000 l 51 1061 l 307 1061 l 307 1000 "},"ã":{"x_min":71,"x_max":448,"ha":522,"o":"m 448 0 l 358 0 l 358 18 q 251 4 305 10 q 145 -4 185 -4 q 71 74 71 -4 l 71 307 q 142 386 71 385 l 360 386 l 360 585 l 165 585 l 165 473 l 78 473 l 78 583 q 149 660 78 659 l 369 660 q 448 582 447 659 l 448 0 m 360 82 l 360 315 l 159 315 l 159 78 l 360 82 m 410 767 q 359 717 410 717 q 270 741 330 717 q 187 778 228 759 l 187 718 l 115 718 l 115 801 q 165 851 115 851 q 254 826 194 851 q 337 790 295 808 l 337 850 l 410 850 l 410 767 "},"æ":{"x_min":71,"x_max":720,"ha":793,"o":"m 720 82 q 641 0 720 0 l 432 0 q 372 19 395 0 q 149 -4 166 -4 q 71 74 71 -4 l 71 307 q 147 386 71 386 l 356 386 l 356 585 l 166 585 l 166 472 l 78 472 l 78 581 q 159 660 78 660 l 641 660 q 720 581 720 660 l 720 343 l 688 313 l 442 313 l 442 75 l 633 75 l 633 195 l 720 195 l 720 82 m 633 384 l 633 585 l 442 585 l 442 384 l 633 384 m 356 79 l 356 315 l 159 315 l 159 74 l 356 79 "},"®":{"x_min":85,"x_max":700,"ha":785,"o":"m 700 78 q 621 0 699 0 l 163 0 q 85 78 85 0 l 85 982 q 163 1061 85 1061 l 621 1061 q 700 982 699 1061 l 700 78 m 648 47 l 648 1014 l 137 1014 l 137 47 l 648 47 m 538 235 l 467 235 l 356 554 l 370 576 l 457 576 l 457 770 l 331 770 l 331 235 l 263 235 l 263 832 l 477 832 q 525 783 525 832 l 525 562 q 496 519 525 528 q 439 516 485 516 q 538 235 538 238 "},"É":{"x_min":85,"x_max":434,"ha":496,"o":"m 434 0 l 85 0 l 85 1061 l 430 1061 l 430 978 l 179 978 l 179 582 l 407 582 l 407 497 l 179 497 l 179 83 l 434 83 l 434 0 m 393 1277 l 227 1121 l 164 1121 l 164 1125 l 265 1280 l 393 1280 l 393 1277 "},"~":{"x_min":115,"x_max":586,"ha":701,"o":"m 586 369 q 530 311 586 311 q 459 324 496 311 l 204 422 l 204 315 l 115 315 l 115 456 q 170 515 115 515 q 241 500 205 515 l 497 404 l 497 511 l 586 511 l 586 369 "},"³":{"x_min":48,"x_max":381,"ha":428,"o":"m 381 598 q 359 544 381 567 q 302 521 337 521 l 126 521 q 48 599 48 521 l 48 691 l 126 691 l 126 595 l 303 595 l 303 703 l 179 780 l 179 826 l 294 893 l 294 985 l 139 985 l 139 898 l 58 898 l 58 982 q 141 1061 58 1061 l 287 1061 q 371 994 371 1061 l 371 906 q 339 842 371 868 q 273 802 306 822 q 347 757 310 780 q 381 686 381 731 l 381 598 "},"¡":{"x_min":85.65625,"x_max":190.359375,"ha":277,"o":"m 189 942 l 87 942 l 87 1061 l 189 1061 l 189 942 m 190 0 l 85 0 l 106 822 l 169 822 l 190 0 "},"[":{"x_min":87,"x_max":342,"ha":403,"o":"m 342 -168 l 162 -168 q 107 -146 128 -168 q 87 -92 87 -125 l 87 985 q 107 1039 87 1018 q 162 1061 128 1061 l 342 1061 l 342 978 l 181 978 l 181 -85 l 342 -85 l 342 -168 "},"L":{"x_min":85,"x_max":424,"ha":468,"o":"m 424 0 l 85 0 l 85 1061 l 179 1061 l 179 83 l 424 83 l 424 0 "}," ":{"x_min":0,"x_max":0,"ha":272},"∑":{"x_min":58,"x_max":440,"ha":496,"o":"m 440 0 l 58 0 l 58 72 l 317 539 l 58 976 l 58 1061 l 436 1061 l 436 978 l 151 978 l 393 579 l 393 498 l 152 83 l 440 83 l 440 0 "},"%":{"x_min":41,"x_max":871,"ha":931,"o":"m 785 1054 l 202 0 l 124 0 l 124 5 l 708 1061 l 785 1061 l 785 1054 m 871 78 q 848 23 871 46 q 792 0 825 0 l 620 0 q 566 25 590 0 q 542 78 542 50 l 542 461 q 566 514 542 488 q 620 540 591 540 l 792 540 q 847 515 823 540 q 871 461 871 491 l 871 78 m 789 76 l 789 461 l 624 461 l 624 76 l 789 76 m 370 599 q 347 544 370 567 q 291 521 324 521 l 119 521 q 65 546 89 521 q 41 599 41 571 l 41 982 q 65 1035 41 1009 q 119 1061 90 1061 l 291 1061 q 346 1036 322 1061 q 370 982 370 1012 l 370 599 m 288 597 l 288 982 l 123 982 l 123 597 l 288 597 "},"P":{"x_min":85,"x_max":505,"ha":569,"o":"m 505 499 q 482 443 505 465 q 426 421 460 421 l 179 421 l 179 0 l 85 0 l 85 1061 l 426 1061 q 482 1039 460 1061 q 505 982 505 1017 l 505 499 m 411 505 l 411 978 l 179 978 l 179 505 l 411 505 "},"∏":{"x_min":26,"x_max":519,"ha":545,"o":"m 519 978 l 419 978 l 419 0 l 327 0 l 327 978 l 216 978 l 216 0 l 124 0 l 124 978 l 26 978 l 26 1061 l 519 1061 l 519 978 "},"À":{"x_min":43,"x_max":513,"ha":556,"o":"m 513 0 l 419 0 l 381 236 l 171 236 l 134 0 l 43 0 l 43 2 l 232 1064 l 325 1064 l 513 0 m 369 319 l 276 894 l 183 319 l 369 319 m 347 1121 l 284 1121 l 118 1277 l 118 1280 l 245 1280 l 347 1125 l 347 1121 "},"_":{"x_min":0,"x_max":501,"ha":501,"o":"m 501 -278 l 0 -278 l 0 -203 l 501 -203 l 501 -278 "},"ñ":{"x_min":74,"x_max":453,"ha":525,"o":"m 453 0 l 363 0 l 363 579 l 164 573 l 164 0 l 74 0 l 74 660 l 164 660 l 164 641 q 271 655 216 648 q 378 664 335 664 q 453 585 453 664 l 453 0 m 412 767 q 361 717 412 717 q 272 741 332 717 q 189 778 230 759 l 189 718 l 117 718 l 117 801 q 167 851 117 851 q 256 826 196 851 q 339 790 297 808 l 339 850 l 412 850 l 412 767 "},"+":{"x_min":48,"x_max":521,"ha":568,"o":"m 521 426 l 326 426 l 326 234 l 243 234 l 243 426 l 48 426 l 48 505 l 243 505 l 243 697 l 326 697 l 326 505 l 521 505 l 521 426 "},"‚":{"x_min":48,"x_max":174,"ha":231,"o":"m 174 171 l 109 -163 l 48 -163 l 72 171 l 174 171 "},"½":{"x_min":-24,"x_max":730,"ha":738,"o":"m 184 521 l 95 521 l 95 791 l 59 791 l 118 1061 l 184 1061 l 184 521 m 637 1050 l 54 -4 l -24 -4 l -24 1 l 560 1057 l 637 1057 l 637 1050 m 730 -1 l 385 -1 l 385 52 l 630 331 l 630 462 l 477 462 l 477 340 l 396 340 l 396 450 q 419 512 396 486 q 479 539 443 539 l 623 539 q 686 513 662 539 q 711 450 711 488 l 711 366 q 678 274 711 309 l 502 78 l 730 78 l 730 -1 "},"Æ":{"x_min":37,"x_max":708,"ha":771,"o":"m 708 0 l 365 0 l 365 236 l 183 236 l 127 0 l 37 0 l 37 2 l 299 1061 l 704 1061 l 704 978 l 458 978 l 458 582 l 684 582 l 684 497 l 458 497 l 458 83 l 708 83 l 708 0 m 365 319 l 365 988 l 202 319 l 365 319 "},"Ë":{"x_min":85,"x_max":434,"ha":496,"o":"m 434 0 l 85 0 l 85 1061 l 430 1061 l 430 978 l 179 978 l 179 582 l 407 582 l 407 497 l 179 497 l 179 83 l 434 83 l 434 0 m 395 1121 l 295 1121 l 295 1223 l 395 1223 l 395 1121 m 220 1121 l 120 1121 l 120 1223 l 220 1223 l 220 1121 "},"'":{"x_min":65,"x_max":165,"ha":231,"o":"m 165 1061 l 144 727 l 85 727 l 65 1061 l 165 1061 "},"Š":{"x_min":81,"x_max":498,"ha":580,"o":"m 498 78 q 476 21 498 43 q 419 0 454 0 l 159 0 q 103 21 125 0 q 81 78 81 43 l 81 344 l 175 344 l 175 83 l 404 83 l 404 336 l 111 689 q 81 770 81 726 l 81 982 q 103 1039 81 1017 q 159 1061 125 1061 l 419 1061 q 476 1039 454 1061 q 498 982 498 1017 l 498 739 l 404 739 l 404 978 l 175 978 l 175 753 l 468 400 q 498 320 498 364 l 498 78 m 454 1275 l 316 1121 l 263 1121 l 126 1275 l 126 1280 l 184 1280 l 291 1200 l 398 1280 l 454 1280 l 454 1275 "},"ª":{"x_min":77,"x_max":378,"ha":455,"o":"m 378 533 l 299 533 l 299 548 q 155 530 164 530 q 77 608 77 530 l 77 764 q 157 843 77 843 l 301 843 l 301 995 l 155 995 l 155 911 l 81 911 l 81 982 q 162 1061 81 1061 l 299 1061 q 378 982 378 1061 l 378 533 m 301 604 l 301 782 l 150 782 l 150 600 l 301 604 m 378 379 l 77 379 l 77 445 l 378 445 l 378 379 "},"Œ":{"x_min":85,"x_max":757,"ha":819,"o":"m 757 0 l 163 0 q 107 21 129 0 q 85 78 85 43 l 85 982 q 107 1039 85 1017 q 163 1061 129 1061 l 753 1061 l 753 978 l 505 978 l 505 582 l 732 582 l 732 497 l 505 497 l 505 83 l 757 83 l 757 0 m 411 83 l 411 978 l 179 978 l 179 83 l 411 83 "},"˛":{"x_min":153,"x_max":392,"ha":555,"o":"m 392 -250 l 207 -250 q 153 -195 153 -250 l 153 -116 q 179 -55 153 -80 l 252 14 l 339 14 l 339 8 l 230 -101 l 230 -186 l 392 -186 l 392 -250 "},"ð":{"x_min":74,"x_max":524,"ha":526,"o":"m 524 826 l 452 806 l 453 78 q 374 0 453 0 l 152 0 q 74 78 74 0 l 74 580 q 152 659 74 659 l 366 659 l 366 781 q 277 757 279 756 l 277 840 l 366 865 l 366 983 l 168 983 l 168 849 l 81 849 l 81 982 q 159 1061 81 1061 l 374 1061 q 455 960 455 1061 q 453 924 455 948 q 452 890 452 900 q 524 908 521 908 l 524 826 m 366 79 l 366 580 l 164 580 l 164 79 l 366 79 "},"T":{"x_min":26,"x_max":449,"ha":475,"o":"m 449 978 l 285 978 l 285 0 l 191 0 l 191 978 l 26 978 l 26 1061 l 449 1061 l 449 978 "},"š":{"x_min":70,"x_max":430,"ha":499,"o":"m 430 78 q 351 0 430 0 l 148 0 q 70 78 70 0 l 70 226 l 159 226 l 159 78 l 341 78 l 341 209 l 104 402 q 71 473 71 430 l 71 581 q 150 660 71 659 l 349 660 q 429 581 429 659 l 429 452 l 342 452 l 342 582 l 159 582 l 159 466 l 396 273 q 430 201 430 246 l 430 78 m 413 872 l 275 718 l 222 718 l 85 872 l 85 877 l 143 877 l 250 797 l 357 877 l 413 877 l 413 872 "},"Þ":{"x_min":85,"x_max":506,"ha":570,"o":"m 506 296 q 483 239 506 261 q 427 218 461 218 l 179 218 l 179 0 l 85 0 l 85 1061 l 179 1061 l 179 857 l 427 857 q 483 835 461 857 q 506 778 506 813 l 506 296 m 412 301 l 412 774 l 179 774 l 179 301 l 412 301 "},"j":{"x_min":-21,"x_max":169.359375,"ha":247,"o":"m 169 805 l 77 805 l 77 919 l 169 919 l 169 805 m 168 -171 q 91 -250 168 -249 l -21 -250 l -21 -171 l 79 -171 l 79 660 l 168 660 l 168 -171 "},"1":{"x_min":55,"x_max":191,"ha":283,"o":"m 191 0 l 96 0 l 96 736 l 55 736 l 55 739 l 114 1061 l 191 1061 l 191 0 "},"›":{"x_min":71,"x_max":337,"ha":389,"o":"m 337 362 l 167 106 l 71 106 l 71 111 l 242 376 l 71 647 l 167 647 l 337 390 l 337 362 "},"ı":{"x_min":79,"x_max":168,"ha":247,"o":"m 168 0 l 79 0 l 79 660 l 168 660 l 168 0 "},"ä":{"x_min":71,"x_max":448,"ha":522,"o":"m 448 0 l 358 0 l 358 18 q 251 4 305 10 q 145 -4 185 -4 q 71 74 71 -4 l 71 307 q 142 386 71 385 l 360 386 l 360 585 l 165 585 l 165 473 l 78 473 l 78 583 q 149 660 78 659 l 369 660 q 448 582 447 659 l 448 0 m 360 82 l 360 315 l 159 315 l 159 78 l 360 82 m 399 718 l 299 718 l 299 820 l 399 820 l 399 718 m 224 718 l 124 718 l 124 820 l 224 820 l 224 718 "},"<":{"x_min":52,"x_max":396,"ha":473,"o":"m 396 164 l 391 164 l 52 419 l 52 467 l 396 725 l 396 631 l 145 444 l 396 258 l 396 164 "},"£":{"x_min":41,"x_max":522,"ha":580,"o":"m 522 0 l 41 0 l 41 83 l 119 83 l 119 468 l 41 468 l 41 550 l 119 550 l 119 982 q 141 1038 119 1016 q 197 1061 163 1061 l 435 1061 q 491 1038 469 1061 q 514 982 514 1016 l 514 739 l 419 739 l 419 979 l 212 979 l 212 550 l 412 550 l 412 468 l 212 468 l 212 83 l 522 83 l 522 0 "},"¹":{"x_min":57,"x_max":182,"ha":269,"o":"m 182 521 l 93 521 l 93 791 l 57 791 l 116 1061 l 182 1061 l 182 521 "},"t":{"x_min":28,"x_max":311,"ha":352,"o":"m 311 0 l 185 0 q 107 78 107 0 l 107 581 l 28 581 l 28 660 l 107 660 l 107 866 l 196 866 l 196 660 l 311 660 l 311 581 l 196 581 l 196 79 l 311 79 l 311 0 "},"¬":{"x_min":81,"x_max":558,"ha":639,"o":"m 558 225 l 474 225 l 474 423 l 81 423 l 81 507 l 558 507 l 558 225 "},"ù":{"x_min":74,"x_max":452,"ha":525,"o":"m 452 0 l 363 0 l 363 18 q 257 4 310 10 q 152 -4 194 -4 q 74 74 74 -3 l 74 660 l 163 660 l 163 81 l 363 86 l 363 660 l 452 660 l 452 0 m 339 718 l 276 718 l 110 874 l 110 877 l 237 877 l 339 722 l 339 718 "},"W":{"x_min":41,"x_max":719,"ha":760,"o":"m 719 1061 l 575 -3 l 498 -3 l 382 795 q 380 857 382 816 q 377 795 380 835 l 262 -3 l 185 -3 l 41 1061 l 135 1061 l 224 297 q 227 221 225 271 q 229 297 226 247 l 340 1061 l 421 1061 l 530 297 q 532 221 531 271 q 536 297 532 247 l 626 1061 l 719 1061 "},"ï":{"x_min":-14,"x_max":261,"ha":247,"o":"m 168 0 l 79 0 l 79 660 l 168 660 l 168 0 m 261 718 l 161 718 l 161 820 l 261 820 l 261 718 m 86 718 l -14 718 l -14 820 l 86 820 l 86 718 "},">":{"x_min":78,"x_max":422,"ha":473,"o":"m 422 419 l 78 164 l 78 258 l 328 444 l 78 631 l 78 725 l 83 725 l 422 467 l 422 419 "},"v":{"x_min":36,"x_max":445,"ha":482,"o":"m 445 660 l 282 -1 l 200 -1 l 36 660 l 129 660 l 241 140 l 355 660 l 445 660 "},"û":{"x_min":74,"x_max":452,"ha":525,"o":"m 452 0 l 363 0 l 363 18 q 257 4 310 10 q 152 -4 194 -4 q 74 74 74 -3 l 74 660 l 163 660 l 163 81 l 363 86 l 363 660 l 452 660 l 452 0 m 424 718 l 365 718 l 263 796 l 160 718 l 105 718 l 105 723 l 238 877 l 291 877 l 424 723 l 424 718 "},"Ò":{"x_min":85,"x_max":533,"ha":618,"o":"m 533 78 q 510 21 533 43 q 454 0 488 0 l 163 0 q 106 21 128 0 q 85 78 85 43 l 85 982 q 106 1039 85 1017 q 163 1061 128 1061 l 454 1061 q 510 1039 488 1061 q 533 982 533 1017 l 533 78 m 439 83 l 439 978 l 179 978 l 179 83 l 439 83 m 383 1121 l 320 1121 l 154 1277 l 154 1280 l 281 1280 l 383 1125 l 383 1121 "},"&":{"x_min":81,"x_max":576.984375,"ha":604,"o":"m 576 513 l 499 513 l 499 0 l 159 0 q 102 22 124 0 q 81 78 81 44 l 81 436 q 115 504 81 482 l 194 555 q 121 599 157 577 q 83 669 83 628 l 83 982 q 106 1038 83 1016 q 162 1061 128 1061 l 420 1061 q 479 1038 456 1061 q 503 982 503 1016 l 503 764 l 408 764 l 408 978 l 176 978 l 176 658 l 272 595 l 576 595 l 576 513 m 406 83 l 406 513 l 271 513 l 174 450 l 174 83 l 406 83 "},"˝":{"x_min":78,"x_max":482,"ha":555,"o":"m 482 874 l 315 718 l 258 718 l 258 722 l 360 877 l 482 877 l 482 874 m 301 874 l 135 718 l 78 718 l 78 722 l 180 877 l 301 877 l 301 874 "},"Ð":{"x_min":23,"x_max":522,"ha":603,"o":"m 522 191 q 466 54 522 108 q 327 0 411 0 l 85 0 l 85 1061 l 327 1061 q 467 1006 412 1061 q 522 869 522 952 l 522 191 m 428 201 l 428 861 q 395 945 428 913 q 309 978 362 978 l 179 978 l 179 83 l 304 83 q 393 114 359 83 q 428 201 428 146 m 329 514 l 23 514 l 23 611 l 329 611 l 329 514 "},"I":{"x_min":90,"x_max":184,"ha":276,"o":"m 184 0 l 90 0 l 90 1061 l 184 1061 l 184 0 "},"ˉ":{"x_min":128,"x_max":428,"ha":555,"o":"m 428 739 l 128 739 l 128 811 l 428 811 l 428 739 "},"G":{"x_min":85,"x_max":514,"ha":597,"o":"m 514 78 q 492 21 514 43 q 435 0 470 0 l 163 0 q 106 21 128 0 q 85 78 85 43 l 85 982 q 106 1039 85 1017 q 163 1061 128 1061 l 435 1061 q 492 1039 470 1061 q 514 982 514 1017 l 514 740 l 419 740 l 419 978 l 179 978 l 179 83 l 419 83 l 419 451 l 306 451 l 306 532 l 514 532 l 514 78 "},"`":{"x_min":196,"x_max":425,"ha":555,"o":"m 425 718 l 362 718 l 196 874 l 196 877 l 323 877 l 425 722 l 425 718 "},"·":{"x_min":64,"x_max":167,"ha":231,"o":"m 167 354 l 64 354 l 64 475 l 167 475 l 167 354 "},"r":{"x_min":74,"x_max":419,"ha":460,"o":"m 419 442 l 330 442 l 330 579 l 164 573 l 164 0 l 74 0 l 74 660 l 164 660 l 164 641 q 254 655 208 648 q 344 664 308 664 q 419 585 418 664 l 419 442 "},"¿":{"x_min":64,"x_max":469,"ha":530,"o":"m 322 942 l 220 942 l 220 1061 l 322 1061 l 322 942 m 469 78 q 446 21 469 43 q 390 0 424 0 l 142 0 q 86 21 108 0 q 64 78 64 43 l 64 314 q 85 385 64 354 l 224 597 l 224 822 l 317 822 l 317 619 q 298 545 317 574 l 158 336 l 158 83 l 375 83 l 375 322 l 469 322 l 469 78 "},"ý":{"x_min":36,"x_max":446,"ha":483,"o":"m 446 660 l 287 5 l 221 -250 l 132 -250 l 199 5 l 36 660 l 129 660 l 241 140 l 356 660 l 446 660 m 399 874 l 233 718 l 170 718 l 170 722 l 271 877 l 399 877 l 399 874 "},"x":{"x_min":28,"x_max":432,"ha":460,"o":"m 432 0 l 340 0 l 229 261 l 117 0 l 28 0 l 28 2 l 182 339 l 37 660 l 129 660 l 231 417 l 336 660 l 423 660 l 423 657 l 278 342 l 432 0 "},"è":{"x_min":74,"x_max":443,"ha":518,"o":"m 443 76 q 364 0 442 0 l 152 0 q 74 78 74 0 l 74 581 q 152 660 74 660 l 364 660 q 443 581 442 660 l 443 345 l 412 314 l 162 314 l 162 75 l 356 75 l 356 196 l 443 196 l 443 76 m 356 386 l 356 585 l 162 585 l 162 386 l 356 386 m 339 718 l 276 718 l 110 874 l 110 877 l 237 877 l 339 722 l 339 718 "},"º":{"x_min":77,"x_max":381,"ha":458,"o":"m 381 611 q 302 533 381 533 l 155 533 q 77 611 77 533 l 77 982 q 155 1061 77 1061 l 302 1061 q 381 982 381 1061 l 381 611 m 305 602 l 305 992 l 153 992 l 153 602 l 305 602 m 381 380 l 77 380 l 77 446 l 381 446 l 381 380 "},"Ø":{"x_min":12.5,"x_max":605.5,"ha":618,"o":"m 533 78 q 510 21 533 43 q 454 0 488 0 l 163 0 q 106 21 128 0 q 85 78 85 43 l 85 982 q 106 1039 85 1017 q 163 1061 128 1061 l 454 1061 q 510 1039 488 1061 q 533 982 533 1017 l 533 78 m 439 83 l 439 978 l 179 978 l 179 83 l 439 83 m 605 970 l 12 0 l 12 90 l 605 1061 l 605 970 "},"∞":{"x_min":24,"x_max":837,"ha":860,"o":"m 837 170 q 760 94 837 94 l 590 94 q 497 170 547 94 l 430 273 l 364 169 q 321 112 335 125 q 272 94 301 94 l 100 94 q 24 170 24 94 l 24 515 q 100 592 24 592 l 272 592 q 366 515 317 591 l 431 412 l 498 515 q 590 592 547 592 l 760 592 q 837 515 836 592 l 837 170 m 747 173 l 747 513 l 585 513 l 476 343 l 586 173 l 747 173 m 385 341 l 273 513 l 114 513 l 114 173 l 277 173 l 385 341 "},"μ":{"x_min":74,"x_max":459,"ha":532,"o":"m 459 0 l 369 0 l 369 19 q 244 -1 323 -1 q 163 26 181 -1 l 163 -250 l 74 -250 l 74 660 l 163 660 l 163 171 q 256 77 163 77 q 369 88 320 77 l 369 660 l 459 660 l 459 0 "},"÷":{"x_min":47,"x_max":520,"ha":568,"o":"m 354 639 q 333 588 354 609 q 282 567 312 567 q 232 588 253 567 q 212 639 212 609 q 232 690 212 669 q 282 711 253 711 q 333 690 312 711 q 354 639 354 669 m 520 424 l 47 424 l 47 509 l 520 509 l 520 424 m 354 291 q 333 240 354 261 q 282 220 312 220 q 232 240 253 220 q 212 291 212 261 q 232 342 212 321 q 282 364 253 364 q 333 342 312 364 q 354 291 354 321 "},"h":{"x_min":74,"x_max":453,"ha":525,"o":"m 453 0 l 363 0 l 363 579 l 164 573 l 164 0 l 74 0 l 74 1061 l 164 1061 l 164 641 q 269 655 216 648 q 374 664 336 664 q 453 585 453 664 l 453 0 "},".":{"x_min":64,"x_max":167,"ha":231,"o":"m 167 0 l 64 0 l 64 119 l 167 119 l 167 0 "},";":{"x_min":45,"x_max":171,"ha":231,"o":"m 167 459 l 64 459 l 64 578 l 167 578 l 167 459 m 171 119 l 110 -75 l 45 -75 l 64 119 l 171 119 "},"f":{"x_min":30,"x_max":324,"ha":330,"o":"m 324 982 l 196 982 l 196 660 l 309 660 l 309 581 l 196 581 l 196 0 l 107 0 l 107 581 l 30 581 l 30 660 l 107 660 l 107 982 q 185 1061 107 1060 l 324 1061 l 324 982 "},"“":{"x_min":46,"x_max":367,"ha":427,"o":"m 367 1061 l 341 727 l 241 727 l 306 1061 l 367 1061 m 173 1061 l 147 727 l 46 727 l 112 1061 l 173 1061 "},"A":{"x_min":43,"x_max":513,"ha":556,"o":"m 513 0 l 419 0 l 381 236 l 171 236 l 134 0 l 43 0 l 43 2 l 232 1064 l 325 1064 l 513 0 m 369 319 l 276 894 l 183 319 l 369 319 "},"6":{"x_min":85,"x_max":505,"ha":588,"o":"m 505 78 q 483 22 505 44 q 426 0 461 0 l 163 0 q 107 22 129 0 q 85 78 85 44 l 85 982 q 107 1038 85 1016 q 163 1061 129 1061 l 423 1061 q 480 1038 458 1061 q 502 982 502 1016 l 502 752 l 408 752 l 408 978 l 179 978 l 179 585 l 426 585 q 483 563 461 585 q 505 506 505 541 l 505 78 m 411 83 l 411 503 l 179 503 l 179 83 l 411 83 "},"‘":{"x_min":46,"x_max":173,"ha":231,"o":"m 173 1061 l 147 727 l 46 727 l 112 1061 l 173 1061 "},"π":{"x_min":26,"x_max":519,"ha":545,"o":"m 519 523 l 419 523 l 419 0 l 327 0 l 327 523 l 216 523 l 216 0 l 124 0 l 124 523 l 26 523 l 26 606 l 519 606 l 519 523 "},"O":{"x_min":85,"x_max":533,"ha":618,"o":"m 533 78 q 510 21 533 43 q 454 0 488 0 l 163 0 q 106 21 128 0 q 85 78 85 43 l 85 982 q 106 1039 85 1017 q 163 1061 128 1061 l 454 1061 q 510 1039 488 1061 q 533 982 533 1017 l 533 78 m 439 83 l 439 978 l 179 978 l 179 83 l 439 83 "},"n":{"x_min":74,"x_max":453,"ha":525,"o":"m 453 0 l 363 0 l 363 579 l 164 573 l 164 0 l 74 0 l 74 660 l 164 660 l 164 641 q 271 655 216 648 q 378 664 335 664 q 453 585 453 664 l 453 0 "},"3":{"x_min":85,"x_max":509,"ha":586,"o":"m 509 78 q 486 22 509 44 q 430 0 464 0 l 163 0 q 107 22 129 0 q 85 78 85 44 l 85 344 l 179 344 l 179 83 l 414 83 l 414 408 l 227 548 l 227 569 l 412 708 l 412 978 l 180 978 l 180 739 l 86 739 l 86 982 q 108 1038 86 1016 q 165 1061 130 1061 l 428 1061 q 485 1038 463 1061 q 507 982 507 1016 l 507 727 q 467 648 507 676 l 341 559 l 468 470 q 509 389 509 442 l 509 78 "},"9":{"x_min":81,"x_max":501,"ha":589,"o":"m 501 78 q 479 22 501 44 q 422 0 457 0 l 159 0 q 106 22 127 0 q 85 78 85 44 l 85 309 l 179 309 l 179 83 l 407 83 l 407 475 l 153 475 q 101 495 121 475 q 81 550 81 516 l 81 982 q 101 1038 81 1016 q 153 1061 121 1061 l 422 1061 q 479 1038 457 1061 q 501 982 501 1016 l 501 78 m 407 557 l 407 978 l 175 978 l 175 557 l 407 557 "},"l":{"x_min":79,"x_max":168,"ha":247,"o":"m 168 0 l 79 0 l 79 1061 l 168 1061 l 168 0 "},"¤":{"x_min":96,"x_max":742,"ha":827,"o":"m 742 745 l 622 624 l 622 356 l 742 236 l 661 156 l 530 288 l 306 288 l 176 156 l 96 236 l 216 356 l 216 625 l 96 745 l 176 826 l 307 694 l 531 694 l 661 826 l 742 745 m 511 388 l 511 594 l 327 594 l 327 388 l 511 388 "},"":{"x_min":30,"x_max":513,"ha":592,"o":"m 513 0 l 424 0 l 424 581 l 196 581 l 196 0 l 107 0 l 107 581 l 30 581 l 30 660 l 107 660 l 107 982 q 185 1061 107 1061 l 434 1061 q 513 982 513 1061 l 513 804 l 424 804 l 424 982 l 196 982 l 196 660 l 513 660 l 513 0 "},"∂":{"x_min":84,"x_max":505,"ha":588,"o":"m 505 582 l 505 75 q 483 21 505 42 q 429 0 462 0 l 159 0 q 105 21 126 0 q 84 75 84 42 l 84 510 q 105 564 84 543 q 159 585 126 585 l 401 585 l 180 1061 l 282 1061 l 505 582 m 410 83 l 410 503 l 178 503 l 178 83 l 410 83 "},"4":{"x_min":29,"x_max":499,"ha":532,"o":"m 499 277 l 418 277 l 418 0 l 329 0 l 329 277 l 29 277 l 29 325 l 286 1061 l 375 1061 q 375 1056 375 1056 l 130 357 l 329 357 l 329 742 l 418 742 l 418 357 l 499 357 l 499 277 "},"p":{"x_min":74,"x_max":453,"ha":524,"o":"m 453 142 q 412 40 453 81 q 312 0 372 0 l 164 0 l 164 -250 l 74 -250 l 74 660 l 164 660 l 164 641 q 269 655 216 648 q 374 664 336 664 q 453 585 453 664 l 453 142 m 363 154 l 363 579 l 164 573 l 164 79 l 288 79 q 363 154 363 79 "},"‡":{"x_min":57,"x_max":553,"ha":610,"o":"m 553 288 l 349 288 l 349 0 l 261 0 l 261 288 l 57 288 l 57 367 l 261 367 l 261 695 l 57 695 l 57 774 l 261 774 l 261 1061 l 349 1061 l 349 774 l 553 774 l 553 695 l 349 695 l 349 367 l 553 367 l 553 288 "},"à":{"x_min":71,"x_max":448,"ha":522,"o":"m 448 0 l 358 0 l 358 18 q 251 4 305 10 q 145 -4 185 -4 q 71 74 71 -4 l 71 307 q 142 386 71 385 l 360 386 l 360 585 l 165 585 l 165 473 l 78 473 l 78 583 q 149 660 78 659 l 369 660 q 448 582 447 659 l 448 0 m 360 82 l 360 315 l 159 315 l 159 78 l 360 82 m 343 718 l 280 718 l 114 874 l 114 877 l 241 877 l 343 722 l 343 718 "},"Ü":{"x_min":85,"x_max":525,"ha":610,"o":"m 525 78 q 502 21 525 43 q 446 0 480 0 l 163 0 q 106 21 128 0 q 85 78 85 43 l 85 1061 l 179 1061 l 179 83 l 431 83 l 431 1061 l 525 1061 l 525 78 m 443 1121 l 343 1121 l 343 1223 l 443 1223 l 443 1121 m 268 1121 l 168 1121 l 168 1223 l 268 1223 l 268 1121 "},"ó":{"x_min":74,"x_max":453,"ha":526,"o":"m 453 78 q 374 0 452 0 l 152 0 q 74 78 74 0 l 74 581 q 152 660 74 660 l 374 660 q 453 581 452 660 l 453 78 m 363 79 l 363 581 l 164 581 l 164 79 l 363 79 m 411 874 l 245 718 l 182 718 l 182 722 l 283 877 l 411 877 l 411 874 "},"√":{"x_min":24,"x_max":573,"ha":602,"o":"m 573 1061 l 282 -1 l 201 -1 l 24 367 l 122 367 l 233 111 l 479 1061 l 573 1061 "}}}
